<mxfile host="app.diagrams.net" modified="2024-01-16T18:08:30.084Z" agent="Mozilla/5.0 (Windows NT 10.0; Win64; x64) AppleWebKit/537.36 (KHTML, like Gecko) Chrome/119.0.0.0 Safari/537.36 OPR/105.0.0.0" etag="6n4WkIimISmgM6PnmT_A" version="22.1.19" type="google">
  <diagram name="Page-1" id="AwsI4sP99ulZDVMtghZD">
    <mxGraphModel grid="1" page="1" gridSize="10" guides="1" tooltips="1" connect="1" arrows="1" fold="1" pageScale="1" pageWidth="850" pageHeight="1100" math="0" shadow="0">
      <root>
        <mxCell id="0" />
        <mxCell id="1" parent="0" />
        <mxCell id="u7TcZUmTgl92QwMoCH_p-4" value="Guide Cloth" style="rounded=0;whiteSpace=wrap;html=1;" vertex="1" parent="1">
          <mxGeometry x="-80" y="766" width="120" height="60" as="geometry" />
        </mxCell>
        <mxCell id="u7TcZUmTgl92QwMoCH_p-5" value="Export Solid" style="rounded=0;whiteSpace=wrap;html=1;" vertex="1" parent="1">
          <mxGeometry x="350" y="400" width="120" height="60" as="geometry" />
        </mxCell>
        <mxCell id="u7TcZUmTgl92QwMoCH_p-6" value="Couple Solids" style="rounded=0;whiteSpace=wrap;html=1;" vertex="1" parent="1">
          <mxGeometry x="120" y="400" width="120" height="60" as="geometry" />
        </mxCell>
        <mxCell id="u7TcZUmTgl92QwMoCH_p-7" value="" style="shape=flexArrow;endArrow=classic;html=1;rounded=0;exitX=1;exitY=0.5;exitDx=0;exitDy=0;" edge="1" parent="1" source="u7TcZUmTgl92QwMoCH_p-5">
          <mxGeometry width="50" height="50" relative="1" as="geometry">
            <mxPoint x="320" y="450" as="sourcePoint" />
            <mxPoint x="570" y="430" as="targetPoint" />
          </mxGeometry>
        </mxCell>
        <mxCell id="u7TcZUmTgl92QwMoCH_p-11" value="Stitched Cloth" style="edgeLabel;html=1;align=center;verticalAlign=middle;resizable=0;points=[];" connectable="0" vertex="1" parent="u7TcZUmTgl92QwMoCH_p-7">
          <mxGeometry x="-0.2529" relative="1" as="geometry">
            <mxPoint as="offset" />
          </mxGeometry>
        </mxCell>
        <mxCell id="u7TcZUmTgl92QwMoCH_p-8" value="" style="shape=flexArrow;endArrow=classic;html=1;rounded=0;exitX=1;exitY=0.5;exitDx=0;exitDy=0;" edge="1" parent="1" source="u7TcZUmTgl92QwMoCH_p-6">
          <mxGeometry width="50" height="50" relative="1" as="geometry">
            <mxPoint x="320" y="450" as="sourcePoint" />
            <mxPoint x="350" y="430" as="targetPoint" />
          </mxGeometry>
        </mxCell>
        <mxCell id="u7TcZUmTgl92QwMoCH_p-9" value="Stitched Cloth" style="edgeLabel;html=1;align=center;verticalAlign=middle;resizable=0;points=[];" connectable="0" vertex="1" parent="u7TcZUmTgl92QwMoCH_p-8">
          <mxGeometry x="-0.3089" y="1" relative="1" as="geometry">
            <mxPoint as="offset" />
          </mxGeometry>
        </mxCell>
        <mxCell id="u7TcZUmTgl92QwMoCH_p-12" value="Guide Thread 1" style="rounded=0;whiteSpace=wrap;html=1;" vertex="1" parent="1">
          <mxGeometry x="-80" y="180" width="120" height="60" as="geometry" />
        </mxCell>
        <mxCell id="u7TcZUmTgl92QwMoCH_p-13" value="Guide Thread 2" style="rounded=0;whiteSpace=wrap;html=1;" vertex="1" parent="1">
          <mxGeometry x="-80" y="400" width="120" height="60" as="geometry" />
        </mxCell>
        <mxCell id="u7TcZUmTgl92QwMoCH_p-14" value="Import Human Energy&lt;br&gt;2 (Crank)" style="rounded=0;whiteSpace=wrap;html=1;" vertex="1" parent="1">
          <mxGeometry x="-970" y="543" width="120" height="60" as="geometry" />
        </mxCell>
        <mxCell id="u7TcZUmTgl92QwMoCH_p-15" value="Convert HE to CS&lt;br&gt;" style="rounded=0;whiteSpace=wrap;html=1;" vertex="1" parent="1">
          <mxGeometry x="-800" y="122" width="120" height="60" as="geometry" />
        </mxCell>
        <mxCell id="u7TcZUmTgl92QwMoCH_p-16" value="Convert HE to ME" style="rounded=0;whiteSpace=wrap;html=1;" vertex="1" parent="1">
          <mxGeometry x="-800" y="543" width="120" height="60" as="geometry" />
        </mxCell>
        <mxCell id="u7TcZUmTgl92QwMoCH_p-17" value="Import Cloth" style="rounded=0;whiteSpace=wrap;html=1;" vertex="1" parent="1">
          <mxGeometry x="-760" y="766" width="120" height="60" as="geometry" />
        </mxCell>
        <mxCell id="u7TcZUmTgl92QwMoCH_p-18" value="Import Thread 2&lt;br&gt;(Horizontal)" style="rounded=0;whiteSpace=wrap;html=1;" vertex="1" parent="1">
          <mxGeometry x="-506" y="400" width="120" height="60" as="geometry" />
        </mxCell>
        <mxCell id="u7TcZUmTgl92QwMoCH_p-20" value="Distribute ME" style="rounded=0;whiteSpace=wrap;html=1;" vertex="1" parent="1">
          <mxGeometry x="-630" y="543" width="120" height="60" as="geometry" />
        </mxCell>
        <mxCell id="u7TcZUmTgl92QwMoCH_p-21" value="" style="endArrow=classic;html=1;rounded=0;exitX=1;exitY=0.5;exitDx=0;exitDy=0;" edge="1" parent="1" source="u7TcZUmTgl92QwMoCH_p-14" target="u7TcZUmTgl92QwMoCH_p-16">
          <mxGeometry width="50" height="50" relative="1" as="geometry">
            <mxPoint x="-200" y="670" as="sourcePoint" />
            <mxPoint x="-150" y="620" as="targetPoint" />
          </mxGeometry>
        </mxCell>
        <mxCell id="u7TcZUmTgl92QwMoCH_p-24" value="HE" style="edgeLabel;html=1;align=center;verticalAlign=middle;resizable=0;points=[];" connectable="0" vertex="1" parent="u7TcZUmTgl92QwMoCH_p-21">
          <mxGeometry x="-0.0497" y="2" relative="1" as="geometry">
            <mxPoint as="offset" />
          </mxGeometry>
        </mxCell>
        <mxCell id="u7TcZUmTgl92QwMoCH_p-25" value="" style="endArrow=classic;html=1;rounded=0;exitX=1;exitY=0.5;exitDx=0;exitDy=0;" edge="1" parent="1" source="u7TcZUmTgl92QwMoCH_p-16" target="u7TcZUmTgl92QwMoCH_p-20">
          <mxGeometry width="50" height="50" relative="1" as="geometry">
            <mxPoint x="-200" y="670" as="sourcePoint" />
            <mxPoint x="-150" y="620" as="targetPoint" />
          </mxGeometry>
        </mxCell>
        <mxCell id="u7TcZUmTgl92QwMoCH_p-26" value="ME" style="edgeLabel;html=1;align=center;verticalAlign=middle;resizable=0;points=[];" connectable="0" vertex="1" parent="u7TcZUmTgl92QwMoCH_p-25">
          <mxGeometry x="-0.2568" y="1" relative="1" as="geometry">
            <mxPoint as="offset" />
          </mxGeometry>
        </mxCell>
        <mxCell id="u7TcZUmTgl92QwMoCH_p-31" value="" style="endArrow=classic;html=1;rounded=0;exitX=0.5;exitY=0;exitDx=0;exitDy=0;entryX=0;entryY=0.5;entryDx=0;entryDy=0;edgeStyle=orthogonalEdgeStyle;" edge="1" parent="1" source="u7TcZUmTgl92QwMoCH_p-20" target="u7TcZUmTgl92QwMoCH_p-75">
          <mxGeometry width="50" height="50" relative="1" as="geometry">
            <mxPoint x="50" y="470" as="sourcePoint" />
            <mxPoint x="120" y="190" as="targetPoint" />
          </mxGeometry>
        </mxCell>
        <mxCell id="k4mmKC3_v8ULvhGFc6ak-19" value="ME" style="edgeLabel;html=1;align=center;verticalAlign=middle;resizable=0;points=[];" vertex="1" connectable="0" parent="u7TcZUmTgl92QwMoCH_p-31">
          <mxGeometry x="0.2764" relative="1" as="geometry">
            <mxPoint as="offset" />
          </mxGeometry>
        </mxCell>
        <mxCell id="u7TcZUmTgl92QwMoCH_p-34" value="" style="shape=flexArrow;endArrow=classic;html=1;rounded=0;entryX=0;entryY=0.5;entryDx=0;entryDy=0;exitX=1;exitY=0.5;exitDx=0;exitDy=0;edgeStyle=orthogonalEdgeStyle;" edge="1" parent="1" source="u7TcZUmTgl92QwMoCH_p-73" target="u7TcZUmTgl92QwMoCH_p-12">
          <mxGeometry width="50" height="50" relative="1" as="geometry">
            <mxPoint x="180" y="160" as="sourcePoint" />
            <mxPoint x="100" y="480" as="targetPoint" />
          </mxGeometry>
        </mxCell>
        <mxCell id="miIwBIg4tcPtXSCKD_5m-6" value="Thread 1" style="edgeLabel;html=1;align=center;verticalAlign=middle;resizable=0;points=[];" connectable="0" vertex="1" parent="u7TcZUmTgl92QwMoCH_p-34">
          <mxGeometry x="-0.4727" y="5" relative="1" as="geometry">
            <mxPoint x="12" y="5" as="offset" />
          </mxGeometry>
        </mxCell>
        <mxCell id="u7TcZUmTgl92QwMoCH_p-36" value="" style="shape=flexArrow;endArrow=classic;html=1;rounded=0;exitX=1;exitY=0.5;exitDx=0;exitDy=0;entryX=0;entryY=0.5;entryDx=0;entryDy=0;" edge="1" parent="1" source="u7TcZUmTgl92QwMoCH_p-18" target="u7TcZUmTgl92QwMoCH_p-72">
          <mxGeometry width="50" height="50" relative="1" as="geometry">
            <mxPoint x="-190" y="640" as="sourcePoint" />
            <mxPoint x="100" y="450" as="targetPoint" />
          </mxGeometry>
        </mxCell>
        <mxCell id="u7TcZUmTgl92QwMoCH_p-37" value="Thread 2" style="edgeLabel;html=1;align=center;verticalAlign=middle;resizable=0;points=[];" connectable="0" vertex="1" parent="u7TcZUmTgl92QwMoCH_p-36">
          <mxGeometry x="-0.0183" y="4" relative="1" as="geometry">
            <mxPoint x="-15" y="4" as="offset" />
          </mxGeometry>
        </mxCell>
        <mxCell id="u7TcZUmTgl92QwMoCH_p-38" value="" style="shape=flexArrow;endArrow=classic;html=1;rounded=0;exitX=1;exitY=0.25;exitDx=0;exitDy=0;entryX=0.75;entryY=0;entryDx=0;entryDy=0;edgeStyle=orthogonalEdgeStyle;" edge="1" parent="1" source="u7TcZUmTgl92QwMoCH_p-12" target="u7TcZUmTgl92QwMoCH_p-6">
          <mxGeometry width="50" height="50" relative="1" as="geometry">
            <mxPoint x="50" y="470" as="sourcePoint" />
            <mxPoint x="330" y="350" as="targetPoint" />
          </mxGeometry>
        </mxCell>
        <mxCell id="u7TcZUmTgl92QwMoCH_p-40" value="Thread 1" style="edgeLabel;html=1;align=center;verticalAlign=middle;resizable=0;points=[];" connectable="0" vertex="1" parent="u7TcZUmTgl92QwMoCH_p-38">
          <mxGeometry x="-0.0908" y="-2" relative="1" as="geometry">
            <mxPoint as="offset" />
          </mxGeometry>
        </mxCell>
        <mxCell id="u7TcZUmTgl92QwMoCH_p-39" value="" style="endArrow=classic;html=1;rounded=0;exitX=1;exitY=0.75;exitDx=0;exitDy=0;entryX=0.25;entryY=0;entryDx=0;entryDy=0;edgeStyle=orthogonalEdgeStyle;" edge="1" parent="1" source="u7TcZUmTgl92QwMoCH_p-12" target="u7TcZUmTgl92QwMoCH_p-6">
          <mxGeometry width="50" height="50" relative="1" as="geometry">
            <mxPoint x="50" y="470" as="sourcePoint" />
            <mxPoint x="100" y="420" as="targetPoint" />
          </mxGeometry>
        </mxCell>
        <mxCell id="u7TcZUmTgl92QwMoCH_p-41" value="ME" style="edgeLabel;html=1;align=center;verticalAlign=middle;resizable=0;points=[];" connectable="0" vertex="1" parent="u7TcZUmTgl92QwMoCH_p-39">
          <mxGeometry x="-0.4485" y="-4" relative="1" as="geometry">
            <mxPoint x="4" y="6" as="offset" />
          </mxGeometry>
        </mxCell>
        <mxCell id="u7TcZUmTgl92QwMoCH_p-43" value="" style="shape=flexArrow;endArrow=classic;html=1;rounded=0;exitX=1;exitY=0.25;exitDx=0;exitDy=0;entryX=0;entryY=0.25;entryDx=0;entryDy=0;" edge="1" parent="1" source="u7TcZUmTgl92QwMoCH_p-13" target="u7TcZUmTgl92QwMoCH_p-6">
          <mxGeometry width="50" height="50" relative="1" as="geometry">
            <mxPoint x="50" y="470" as="sourcePoint" />
            <mxPoint x="100" y="420" as="targetPoint" />
          </mxGeometry>
        </mxCell>
        <mxCell id="u7TcZUmTgl92QwMoCH_p-46" value="Thread 2" style="edgeLabel;html=1;align=center;verticalAlign=middle;resizable=0;points=[];" connectable="0" vertex="1" parent="u7TcZUmTgl92QwMoCH_p-43">
          <mxGeometry x="-0.1997" y="3" relative="1" as="geometry">
            <mxPoint as="offset" />
          </mxGeometry>
        </mxCell>
        <mxCell id="u7TcZUmTgl92QwMoCH_p-44" value="" style="endArrow=classic;html=1;rounded=0;exitX=1;exitY=0.75;exitDx=0;exitDy=0;entryX=0;entryY=0.75;entryDx=0;entryDy=0;" edge="1" parent="1" source="u7TcZUmTgl92QwMoCH_p-13" target="u7TcZUmTgl92QwMoCH_p-6">
          <mxGeometry width="50" height="50" relative="1" as="geometry">
            <mxPoint x="50" y="470" as="sourcePoint" />
            <mxPoint x="100" y="420" as="targetPoint" />
          </mxGeometry>
        </mxCell>
        <mxCell id="u7TcZUmTgl92QwMoCH_p-45" value="ME" style="edgeLabel;html=1;align=center;verticalAlign=middle;resizable=0;points=[];" connectable="0" vertex="1" parent="u7TcZUmTgl92QwMoCH_p-44">
          <mxGeometry x="-0.1997" y="2" relative="1" as="geometry">
            <mxPoint as="offset" />
          </mxGeometry>
        </mxCell>
        <mxCell id="u7TcZUmTgl92QwMoCH_p-48" value="" style="shape=flexArrow;endArrow=classic;html=1;rounded=0;exitX=1;exitY=0.75;exitDx=0;exitDy=0;entryX=0.75;entryY=1;entryDx=0;entryDy=0;edgeStyle=orthogonalEdgeStyle;" edge="1" parent="1" source="u7TcZUmTgl92QwMoCH_p-4" target="u7TcZUmTgl92QwMoCH_p-6">
          <mxGeometry width="50" height="50" relative="1" as="geometry">
            <mxPoint x="50" y="560" as="sourcePoint" />
            <mxPoint x="100" y="510" as="targetPoint" />
          </mxGeometry>
        </mxCell>
        <mxCell id="u7TcZUmTgl92QwMoCH_p-50" value="Cloth" style="edgeLabel;html=1;align=center;verticalAlign=middle;resizable=0;points=[];" connectable="0" vertex="1" parent="u7TcZUmTgl92QwMoCH_p-48">
          <mxGeometry x="0.0726" y="-1" relative="1" as="geometry">
            <mxPoint as="offset" />
          </mxGeometry>
        </mxCell>
        <mxCell id="u7TcZUmTgl92QwMoCH_p-54" value="" style="endArrow=classic;html=1;rounded=0;exitX=1;exitY=0.25;exitDx=0;exitDy=0;entryX=0.25;entryY=1;entryDx=0;entryDy=0;edgeStyle=orthogonalEdgeStyle;" edge="1" parent="1" source="u7TcZUmTgl92QwMoCH_p-4" target="u7TcZUmTgl92QwMoCH_p-6">
          <mxGeometry width="50" height="50" relative="1" as="geometry">
            <mxPoint x="50" y="560" as="sourcePoint" />
            <mxPoint x="100" y="510" as="targetPoint" />
          </mxGeometry>
        </mxCell>
        <mxCell id="u7TcZUmTgl92QwMoCH_p-55" value="ME" style="edgeLabel;html=1;align=center;verticalAlign=middle;resizable=0;points=[];" connectable="0" vertex="1" parent="u7TcZUmTgl92QwMoCH_p-54">
          <mxGeometry x="0.1584" y="3" relative="1" as="geometry">
            <mxPoint as="offset" />
          </mxGeometry>
        </mxCell>
        <mxCell id="u7TcZUmTgl92QwMoCH_p-65" value="" style="shape=flexArrow;endArrow=classic;html=1;rounded=0;exitX=1;exitY=0.5;exitDx=0;exitDy=0;edgeStyle=orthogonalEdgeStyle;" edge="1" parent="1" source="u7TcZUmTgl92QwMoCH_p-17" target="k4mmKC3_v8ULvhGFc6ak-14">
          <mxGeometry width="50" height="50" relative="1" as="geometry">
            <mxPoint x="-207" y="850" as="sourcePoint" />
            <mxPoint x="-367" y="800" as="targetPoint" />
          </mxGeometry>
        </mxCell>
        <mxCell id="u7TcZUmTgl92QwMoCH_p-66" value="Cloth" style="edgeLabel;html=1;align=center;verticalAlign=middle;resizable=0;points=[];" connectable="0" vertex="1" parent="u7TcZUmTgl92QwMoCH_p-65">
          <mxGeometry x="-0.0815" y="-2" relative="1" as="geometry">
            <mxPoint as="offset" />
          </mxGeometry>
        </mxCell>
        <mxCell id="u7TcZUmTgl92QwMoCH_p-68" value="Import Human Energy 1" style="rounded=0;whiteSpace=wrap;html=1;" vertex="1" parent="1">
          <mxGeometry x="-970" y="122" width="120" height="60" as="geometry" />
        </mxCell>
        <mxCell id="u7TcZUmTgl92QwMoCH_p-70" value="Import Human Energy 3" style="rounded=0;whiteSpace=wrap;html=1;" vertex="1" parent="1">
          <mxGeometry x="-968" y="462" width="120" height="60" as="geometry" />
        </mxCell>
        <mxCell id="u7TcZUmTgl92QwMoCH_p-71" value="Convert HE to CS" style="rounded=0;whiteSpace=wrap;html=1;" vertex="1" parent="1">
          <mxGeometry x="-798" y="462" width="120" height="60" as="geometry" />
        </mxCell>
        <mxCell id="u7TcZUmTgl92QwMoCH_p-72" value="Regulate Thread 2" style="rounded=0;whiteSpace=wrap;html=1;" vertex="1" parent="1">
          <mxGeometry x="-277" y="400" width="120" height="60" as="geometry" />
        </mxCell>
        <mxCell id="k4mmKC3_v8ULvhGFc6ak-34" style="edgeStyle=orthogonalEdgeStyle;rounded=0;orthogonalLoop=1;jettySize=auto;html=1;exitX=1;exitY=0.5;exitDx=0;exitDy=0;entryX=0;entryY=0.5;entryDx=0;entryDy=0;" edge="1" parent="1" source="u7TcZUmTgl92QwMoCH_p-74" target="k4mmKC3_v8ULvhGFc6ak-30">
          <mxGeometry relative="1" as="geometry" />
        </mxCell>
        <mxCell id="k4mmKC3_v8ULvhGFc6ak-35" value="ME" style="edgeLabel;html=1;align=center;verticalAlign=middle;resizable=0;points=[];" vertex="1" connectable="0" parent="k4mmKC3_v8ULvhGFc6ak-34">
          <mxGeometry x="0.021" relative="1" as="geometry">
            <mxPoint as="offset" />
          </mxGeometry>
        </mxCell>
        <mxCell id="u7TcZUmTgl92QwMoCH_p-74" value="Change ME" style="rounded=0;whiteSpace=wrap;html=1;" vertex="1" parent="1">
          <mxGeometry x="-442" y="660" width="120" height="60" as="geometry" />
        </mxCell>
        <mxCell id="Zdtnt47J7BGNkLm7LcEf-1" style="edgeStyle=orthogonalEdgeStyle;rounded=0;orthogonalLoop=1;jettySize=auto;html=1;exitX=1;exitY=0.5;exitDx=0;exitDy=0;entryX=0;entryY=0.5;entryDx=0;entryDy=0;" edge="1" parent="1" source="u7TcZUmTgl92QwMoCH_p-75" target="u7TcZUmTgl92QwMoCH_p-83">
          <mxGeometry relative="1" as="geometry" />
        </mxCell>
        <mxCell id="Zdtnt47J7BGNkLm7LcEf-2" value="ME" style="edgeLabel;html=1;align=center;verticalAlign=middle;resizable=0;points=[];" connectable="0" vertex="1" parent="Zdtnt47J7BGNkLm7LcEf-1">
          <mxGeometry x="0.0569" y="-4" relative="1" as="geometry">
            <mxPoint as="offset" />
          </mxGeometry>
        </mxCell>
        <mxCell id="u7TcZUmTgl92QwMoCH_p-75" value="Change ME" style="rounded=0;whiteSpace=wrap;html=1;" vertex="1" parent="1">
          <mxGeometry x="-437" y="290" width="120" height="60" as="geometry" />
        </mxCell>
        <mxCell id="u7TcZUmTgl92QwMoCH_p-76" value="" style="endArrow=classic;html=1;rounded=0;exitX=0.5;exitY=0;exitDx=0;exitDy=0;entryX=0.5;entryY=1;entryDx=0;entryDy=0;edgeStyle=orthogonalEdgeStyle;" edge="1" parent="1" source="u7TcZUmTgl92QwMoCH_p-86" target="u7TcZUmTgl92QwMoCH_p-13">
          <mxGeometry width="50" height="50" relative="1" as="geometry">
            <mxPoint x="-200" y="470" as="sourcePoint" />
            <mxPoint x="-150" y="429.9999999999998" as="targetPoint" />
          </mxGeometry>
        </mxCell>
        <mxCell id="u7TcZUmTgl92QwMoCH_p-89" value="ME" style="edgeLabel;html=1;align=center;verticalAlign=middle;resizable=0;points=[];" connectable="0" vertex="1" parent="u7TcZUmTgl92QwMoCH_p-76">
          <mxGeometry x="0.072" y="-1" relative="1" as="geometry">
            <mxPoint as="offset" />
          </mxGeometry>
        </mxCell>
        <mxCell id="u7TcZUmTgl92QwMoCH_p-83" value="Transfer ME" style="rounded=0;whiteSpace=wrap;html=1;" vertex="1" parent="1">
          <mxGeometry x="-75" y="286" width="120" height="60" as="geometry" />
        </mxCell>
        <mxCell id="u7TcZUmTgl92QwMoCH_p-84" value="" style="endArrow=classic;html=1;rounded=0;exitX=0.5;exitY=0;exitDx=0;exitDy=0;" edge="1" parent="1" source="u7TcZUmTgl92QwMoCH_p-83" target="u7TcZUmTgl92QwMoCH_p-12">
          <mxGeometry width="50" height="50" relative="1" as="geometry">
            <mxPoint x="-130" y="210" as="sourcePoint" />
            <mxPoint x="-80" y="160" as="targetPoint" />
          </mxGeometry>
        </mxCell>
        <mxCell id="u7TcZUmTgl92QwMoCH_p-85" value="ME" style="edgeLabel;html=1;align=center;verticalAlign=middle;resizable=0;points=[];" connectable="0" vertex="1" parent="u7TcZUmTgl92QwMoCH_p-84">
          <mxGeometry x="0.0529" relative="1" as="geometry">
            <mxPoint as="offset" />
          </mxGeometry>
        </mxCell>
        <mxCell id="u7TcZUmTgl92QwMoCH_p-86" value="Transfer ME" style="rounded=0;whiteSpace=wrap;html=1;" vertex="1" parent="1">
          <mxGeometry x="-80" y="539" width="120" height="60" as="geometry" />
        </mxCell>
        <mxCell id="u7TcZUmTgl92QwMoCH_p-90" value="" style="endArrow=classic;html=1;rounded=0;exitX=1;exitY=0.5;exitDx=0;exitDy=0;entryX=0;entryY=0.5;entryDx=0;entryDy=0;" edge="1" parent="1" source="u7TcZUmTgl92QwMoCH_p-68" target="u7TcZUmTgl92QwMoCH_p-15">
          <mxGeometry width="50" height="50" relative="1" as="geometry">
            <mxPoint x="-450" y="182" as="sourcePoint" />
            <mxPoint x="-400" y="132" as="targetPoint" />
          </mxGeometry>
        </mxCell>
        <mxCell id="u7TcZUmTgl92QwMoCH_p-91" value="HE" style="edgeLabel;html=1;align=center;verticalAlign=middle;resizable=0;points=[];" connectable="0" vertex="1" parent="u7TcZUmTgl92QwMoCH_p-90">
          <mxGeometry x="-0.1725" y="2" relative="1" as="geometry">
            <mxPoint as="offset" />
          </mxGeometry>
        </mxCell>
        <mxCell id="u7TcZUmTgl92QwMoCH_p-98" value="" style="endArrow=classic;html=1;rounded=0;exitX=1;exitY=0.5;exitDx=0;exitDy=0;" edge="1" parent="1" source="u7TcZUmTgl92QwMoCH_p-70" target="u7TcZUmTgl92QwMoCH_p-71">
          <mxGeometry width="50" height="50" relative="1" as="geometry">
            <mxPoint x="-445" y="317" as="sourcePoint" />
            <mxPoint x="-395" y="267" as="targetPoint" />
          </mxGeometry>
        </mxCell>
        <mxCell id="u7TcZUmTgl92QwMoCH_p-99" value="HE" style="edgeLabel;html=1;align=center;verticalAlign=middle;resizable=0;points=[];" connectable="0" vertex="1" parent="u7TcZUmTgl92QwMoCH_p-98">
          <mxGeometry x="-0.0212" y="-2" relative="1" as="geometry">
            <mxPoint as="offset" />
          </mxGeometry>
        </mxCell>
        <mxCell id="u7TcZUmTgl92QwMoCH_p-101" value="" style="endArrow=classic;html=1;rounded=0;exitX=1;exitY=0.5;exitDx=0;exitDy=0;dashed=1;edgeStyle=orthogonalEdgeStyle;" edge="1" parent="1" source="u7TcZUmTgl92QwMoCH_p-71" target="u7TcZUmTgl92QwMoCH_p-72">
          <mxGeometry width="50" height="50" relative="1" as="geometry">
            <mxPoint x="-685" y="-103" as="sourcePoint" />
            <mxPoint x="-275" y="-103" as="targetPoint" />
          </mxGeometry>
        </mxCell>
        <mxCell id="u7TcZUmTgl92QwMoCH_p-102" value="Spool 2 Friction CS" style="edgeLabel;html=1;align=center;verticalAlign=middle;resizable=0;points=[];" connectable="0" vertex="1" parent="u7TcZUmTgl92QwMoCH_p-101">
          <mxGeometry x="0.0176" y="-3" relative="1" as="geometry">
            <mxPoint as="offset" />
          </mxGeometry>
        </mxCell>
        <mxCell id="u7TcZUmTgl92QwMoCH_p-73" value="Regulate Thread 1" style="rounded=0;whiteSpace=wrap;html=1;" vertex="1" parent="1">
          <mxGeometry x="-270" y="180" width="120" height="60" as="geometry" />
        </mxCell>
        <mxCell id="miIwBIg4tcPtXSCKD_5m-3" value="" style="endArrow=classic;html=1;rounded=0;exitX=1;exitY=0.5;exitDx=0;exitDy=0;entryX=0.5;entryY=0;entryDx=0;entryDy=0;dashed=1;edgeStyle=orthogonalEdgeStyle;" edge="1" parent="1" source="u7TcZUmTgl92QwMoCH_p-15" target="u7TcZUmTgl92QwMoCH_p-73">
          <mxGeometry width="50" height="50" relative="1" as="geometry">
            <mxPoint x="-680" y="200" as="sourcePoint" />
            <mxPoint x="-80" y="210" as="targetPoint" />
          </mxGeometry>
        </mxCell>
        <mxCell id="k4mmKC3_v8ULvhGFc6ak-8" value="Spool 1 Frictrion CS" style="edgeLabel;html=1;align=center;verticalAlign=middle;resizable=0;points=[];" vertex="1" connectable="0" parent="miIwBIg4tcPtXSCKD_5m-3">
          <mxGeometry x="-0.404" relative="1" as="geometry">
            <mxPoint as="offset" />
          </mxGeometry>
        </mxCell>
        <mxCell id="u7TcZUmTgl92QwMoCH_p-19" value="Import Thread 1&lt;br&gt;(Vertical)" style="rounded=0;whiteSpace=wrap;html=1;" vertex="1" parent="1">
          <mxGeometry x="-460" y="180" width="120" height="60" as="geometry" />
        </mxCell>
        <mxCell id="miIwBIg4tcPtXSCKD_5m-5" value="Thread 1" style="shape=flexArrow;endArrow=classic;html=1;rounded=0;entryX=0;entryY=0.5;entryDx=0;entryDy=0;exitX=1;exitY=0.5;exitDx=0;exitDy=0;edgeStyle=orthogonalEdgeStyle;" edge="1" parent="1" source="u7TcZUmTgl92QwMoCH_p-19" target="u7TcZUmTgl92QwMoCH_p-73">
          <mxGeometry width="50" height="50" relative="1" as="geometry">
            <mxPoint x="45" y="220" as="sourcePoint" />
            <mxPoint x="185" y="300" as="targetPoint" />
          </mxGeometry>
        </mxCell>
        <mxCell id="k4mmKC3_v8ULvhGFc6ak-4" value="" style="shape=flexArrow;endArrow=classic;html=1;rounded=0;exitX=1;exitY=0.5;exitDx=0;exitDy=0;entryX=0;entryY=0.5;entryDx=0;entryDy=0;" edge="1" parent="1" source="u7TcZUmTgl92QwMoCH_p-72" target="u7TcZUmTgl92QwMoCH_p-13">
          <mxGeometry width="50" height="50" relative="1" as="geometry">
            <mxPoint x="-100" y="600" as="sourcePoint" />
            <mxPoint x="-50" y="550" as="targetPoint" />
          </mxGeometry>
        </mxCell>
        <mxCell id="k4mmKC3_v8ULvhGFc6ak-5" value="Thread 2" style="edgeLabel;html=1;align=center;verticalAlign=middle;resizable=0;points=[];" vertex="1" connectable="0" parent="k4mmKC3_v8ULvhGFc6ak-4">
          <mxGeometry x="-0.3724" y="-1" relative="1" as="geometry">
            <mxPoint as="offset" />
          </mxGeometry>
        </mxCell>
        <mxCell id="k4mmKC3_v8ULvhGFc6ak-14" value="Stabilize Cloth" style="rounded=0;whiteSpace=wrap;html=1;" vertex="1" parent="1">
          <mxGeometry x="-557" y="766" width="120" height="60" as="geometry" />
        </mxCell>
        <mxCell id="miIwBIg4tcPtXSCKD_5m-8" value="ME" style="edgeStyle=orthogonalEdgeStyle;rounded=0;orthogonalLoop=1;jettySize=auto;html=1;exitX=1;exitY=0.5;exitDx=0;exitDy=0;entryX=0;entryY=0.5;entryDx=0;entryDy=0;" edge="1" parent="1" source="k4mmKC3_v8ULvhGFc6ak-21" target="u7TcZUmTgl92QwMoCH_p-86">
          <mxGeometry relative="1" as="geometry" />
        </mxCell>
        <mxCell id="k4mmKC3_v8ULvhGFc6ak-21" value="Change ME" style="rounded=0;whiteSpace=wrap;html=1;" vertex="1" parent="1">
          <mxGeometry x="-445" y="539" width="120" height="60" as="geometry" />
        </mxCell>
        <mxCell id="k4mmKC3_v8ULvhGFc6ak-22" value="" style="endArrow=classic;html=1;rounded=0;exitX=1;exitY=0.5;exitDx=0;exitDy=0;entryX=0;entryY=0.5;entryDx=0;entryDy=0;edgeStyle=orthogonalEdgeStyle;" edge="1" parent="1" source="u7TcZUmTgl92QwMoCH_p-20" target="k4mmKC3_v8ULvhGFc6ak-21">
          <mxGeometry width="50" height="50" relative="1" as="geometry">
            <mxPoint x="-500" y="640" as="sourcePoint" />
            <mxPoint x="-630" y="630" as="targetPoint" />
          </mxGeometry>
        </mxCell>
        <mxCell id="k4mmKC3_v8ULvhGFc6ak-23" value="ME" style="edgeLabel;html=1;align=center;verticalAlign=middle;resizable=0;points=[];" connectable="0" vertex="1" parent="k4mmKC3_v8ULvhGFc6ak-22">
          <mxGeometry x="-0.1844" y="2" relative="1" as="geometry">
            <mxPoint as="offset" />
          </mxGeometry>
        </mxCell>
        <mxCell id="k4mmKC3_v8ULvhGFc6ak-26" value="" style="shape=flexArrow;endArrow=classic;html=1;rounded=0;exitX=1;exitY=0.5;exitDx=0;exitDy=0;edgeStyle=orthogonalEdgeStyle;entryX=0;entryY=0.5;entryDx=0;entryDy=0;" edge="1" parent="1" source="k4mmKC3_v8ULvhGFc6ak-14" target="k4mmKC3_v8ULvhGFc6ak-38">
          <mxGeometry width="50" height="50" relative="1" as="geometry">
            <mxPoint x="-277" y="740" as="sourcePoint" />
            <mxPoint x="-257" y="796" as="targetPoint" />
          </mxGeometry>
        </mxCell>
        <mxCell id="k4mmKC3_v8ULvhGFc6ak-32" value="Cloth" style="edgeLabel;html=1;align=center;verticalAlign=middle;resizable=0;points=[];" vertex="1" connectable="0" parent="k4mmKC3_v8ULvhGFc6ak-26">
          <mxGeometry x="-0.0585" y="1" relative="1" as="geometry">
            <mxPoint as="offset" />
          </mxGeometry>
        </mxCell>
        <mxCell id="k4mmKC3_v8ULvhGFc6ak-27" value="" style="endArrow=classic;html=1;rounded=0;exitX=0.5;exitY=1;exitDx=0;exitDy=0;entryX=0;entryY=0.5;entryDx=0;entryDy=0;edgeStyle=orthogonalEdgeStyle;" edge="1" parent="1" source="u7TcZUmTgl92QwMoCH_p-20" target="u7TcZUmTgl92QwMoCH_p-74">
          <mxGeometry width="50" height="50" relative="1" as="geometry">
            <mxPoint x="-220" y="630" as="sourcePoint" />
            <mxPoint x="-130" y="830" as="targetPoint" />
          </mxGeometry>
        </mxCell>
        <mxCell id="k4mmKC3_v8ULvhGFc6ak-36" style="edgeStyle=orthogonalEdgeStyle;rounded=0;orthogonalLoop=1;jettySize=auto;html=1;exitX=0.5;exitY=1;exitDx=0;exitDy=0;entryX=0.5;entryY=0;entryDx=0;entryDy=0;" edge="1" parent="1" source="k4mmKC3_v8ULvhGFc6ak-30" target="u7TcZUmTgl92QwMoCH_p-4">
          <mxGeometry relative="1" as="geometry" />
        </mxCell>
        <mxCell id="k4mmKC3_v8ULvhGFc6ak-37" value="ME" style="edgeLabel;html=1;align=center;verticalAlign=middle;resizable=0;points=[];" vertex="1" connectable="0" parent="k4mmKC3_v8ULvhGFc6ak-36">
          <mxGeometry x="-0.0123" y="-4" relative="1" as="geometry">
            <mxPoint as="offset" />
          </mxGeometry>
        </mxCell>
        <mxCell id="k4mmKC3_v8ULvhGFc6ak-30" value="Transfer ME" style="rounded=0;whiteSpace=wrap;html=1;" vertex="1" parent="1">
          <mxGeometry x="-80" y="660" width="120" height="60" as="geometry" />
        </mxCell>
        <mxCell id="k4mmKC3_v8ULvhGFc6ak-38" value="Regulate Cloth" style="rounded=0;whiteSpace=wrap;html=1;" vertex="1" parent="1">
          <mxGeometry x="-307" y="766" width="120" height="60" as="geometry" />
        </mxCell>
        <mxCell id="k4mmKC3_v8ULvhGFc6ak-41" style="edgeStyle=orthogonalEdgeStyle;rounded=0;orthogonalLoop=1;jettySize=auto;html=1;exitX=1;exitY=0.5;exitDx=0;exitDy=0;entryX=0;entryY=0.5;entryDx=0;entryDy=0;" edge="1" parent="1" source="k4mmKC3_v8ULvhGFc6ak-39" target="k4mmKC3_v8ULvhGFc6ak-40">
          <mxGeometry relative="1" as="geometry" />
        </mxCell>
        <mxCell id="k4mmKC3_v8ULvhGFc6ak-44" value="HE" style="edgeLabel;html=1;align=center;verticalAlign=middle;resizable=0;points=[];" connectable="0" vertex="1" parent="k4mmKC3_v8ULvhGFc6ak-41">
          <mxGeometry x="-0.0883" y="-1" relative="1" as="geometry">
            <mxPoint as="offset" />
          </mxGeometry>
        </mxCell>
        <mxCell id="k4mmKC3_v8ULvhGFc6ak-39" value="Import Human Energy 4" style="rounded=0;whiteSpace=wrap;html=1;" vertex="1" parent="1">
          <mxGeometry x="-968" y="900" width="120" height="60" as="geometry" />
        </mxCell>
        <mxCell id="k4mmKC3_v8ULvhGFc6ak-42" style="edgeStyle=orthogonalEdgeStyle;rounded=0;orthogonalLoop=1;jettySize=auto;html=1;exitX=1;exitY=0.5;exitDx=0;exitDy=0;dashed=1;entryX=0.5;entryY=1;entryDx=0;entryDy=0;" edge="1" parent="1" source="k4mmKC3_v8ULvhGFc6ak-40" target="k4mmKC3_v8ULvhGFc6ak-38">
          <mxGeometry relative="1" as="geometry">
            <mxPoint x="-300" y="870" as="targetPoint" />
          </mxGeometry>
        </mxCell>
        <mxCell id="k4mmKC3_v8ULvhGFc6ak-45" value="Cloth Angle CS" style="edgeLabel;html=1;align=center;verticalAlign=middle;resizable=0;points=[];" connectable="0" vertex="1" parent="k4mmKC3_v8ULvhGFc6ak-42">
          <mxGeometry x="-0.0898" y="-1" relative="1" as="geometry">
            <mxPoint as="offset" />
          </mxGeometry>
        </mxCell>
        <mxCell id="k4mmKC3_v8ULvhGFc6ak-40" value="Convert HE to CS" style="rounded=0;whiteSpace=wrap;html=1;" vertex="1" parent="1">
          <mxGeometry x="-800" y="900" width="120" height="60" as="geometry" />
        </mxCell>
        <mxCell id="k4mmKC3_v8ULvhGFc6ak-51" value="" style="shape=flexArrow;endArrow=classic;html=1;rounded=0;exitX=1;exitY=0.5;exitDx=0;exitDy=0;" edge="1" parent="1" source="k4mmKC3_v8ULvhGFc6ak-38" target="u7TcZUmTgl92QwMoCH_p-4">
          <mxGeometry width="50" height="50" relative="1" as="geometry">
            <mxPoint x="-550" y="910" as="sourcePoint" />
            <mxPoint x="-500" y="860" as="targetPoint" />
          </mxGeometry>
        </mxCell>
        <mxCell id="k4mmKC3_v8ULvhGFc6ak-52" value="Cloth" style="edgeLabel;html=1;align=center;verticalAlign=middle;resizable=0;points=[];" connectable="0" vertex="1" parent="k4mmKC3_v8ULvhGFc6ak-51">
          <mxGeometry x="-0.0957" y="-2" relative="1" as="geometry">
            <mxPoint as="offset" />
          </mxGeometry>
        </mxCell>
      </root>
    </mxGraphModel>
  </diagram>
</mxfile>
